<svg width="81" height="81" viewBox="0 0 81 81" fill="none" xmlns="http://www.w3.org/2000/svg">
<rect width="81" height="81" fill="#667eea"/>
<path d="M40.5 20C29.73 20 21 28.73 21 39.5C21 50.27 29.73 59 40.5 59C51.27 59 60 50.27 60 39.5C60 28.73 51.27 20 40.5 20ZM40.5 24.5C48.79 24.5 55.5 31.21 55.5 39.5C55.5 47.79 48.79 54.5 40.5 54.5C32.21 54.5 25.5 47.79 25.5 39.5C25.5 31.21 32.21 24.5 40.5 24.5Z" fill="white"/>
<circle cx="35" cy="36" r="3" fill="white"/>
<circle cx="46" cy="36" r="3" fill="white"/>
<path d="M33 45C33 45 36 49 40.5 49C45 49 48 45 48 45" stroke="white" stroke-width="3" stroke-linecap="round"/>
</svg>
